<svg width="44" height="50" viewBox="0 0 44 50" fill="none" xmlns="http://www.w3.org/2000/svg">
<rect width="44" height="44" rx="10" fill="white" fill-opacity="0.8"/>
<rect x="0.5" y="0.5" width="43" height="43" rx="9.5" stroke="#4072DF" stroke-opacity="0.06"/>
<g filter="url(#filter0_di_563_30470)">
<path d="M26.7502 13.56V12C26.7502 11.59 26.4102 11.25 26.0002 11.25C25.5902 11.25 25.2502 11.59 25.2502 12V13.5H18.7502V12C18.7502 11.59 18.4102 11.25 18.0002 11.25C17.5902 11.25 17.2502 11.59 17.2502 12V13.56C14.5502 13.81 13.2402 15.42 13.0402 17.81C13.0202 18.1 13.2602 18.34 13.5402 18.34H30.4602C30.7502 18.34 30.9902 18.09 30.9602 17.81C30.7602 15.42 29.4502 13.81 26.7502 13.56Z" fill="#4072DF"/>
<path d="M30 19.84H14C13.45 19.84 13 20.29 13 20.84V27C13 30 14.5 32 18 32H26C29.5 32 31 30 31 27V20.84C31 20.29 30.55 19.84 30 19.84ZM19.21 28.21C19.16 28.25 19.11 28.3 19.06 28.33C19 28.37 18.94 28.4 18.88 28.42C18.82 28.45 18.76 28.47 18.7 28.48C18.63 28.49 18.57 28.5 18.5 28.5C18.37 28.5 18.24 28.47 18.12 28.42C17.99 28.37 17.89 28.3 17.79 28.21C17.61 28.02 17.5 27.76 17.5 27.5C17.5 27.24 17.61 26.98 17.79 26.79C17.89 26.7 17.99 26.63 18.12 26.58C18.3 26.5 18.5 26.48 18.7 26.52C18.76 26.53 18.82 26.55 18.88 26.58C18.94 26.6 19 26.63 19.06 26.67C19.11 26.71 19.16 26.75 19.21 26.79C19.39 26.98 19.5 27.24 19.5 27.5C19.5 27.76 19.39 28.02 19.21 28.21ZM19.21 24.71C19.02 24.89 18.76 25 18.5 25C18.24 25 17.98 24.89 17.79 24.71C17.61 24.52 17.5 24.26 17.5 24C17.5 23.74 17.61 23.48 17.79 23.29C18.07 23.01 18.51 22.92 18.88 23.08C19.01 23.13 19.12 23.2 19.21 23.29C19.39 23.48 19.5 23.74 19.5 24C19.5 24.26 19.39 24.52 19.21 24.71ZM22.71 28.21C22.52 28.39 22.26 28.5 22 28.5C21.74 28.5 21.48 28.39 21.29 28.21C21.11 28.02 21 27.76 21 27.5C21 27.24 21.11 26.98 21.29 26.79C21.66 26.42 22.34 26.42 22.71 26.79C22.89 26.98 23 27.24 23 27.5C23 27.76 22.89 28.02 22.71 28.21ZM22.71 24.71C22.66 24.75 22.61 24.79 22.56 24.83C22.5 24.87 22.44 24.9 22.38 24.92C22.32 24.95 22.26 24.97 22.2 24.98C22.13 24.99 22.07 25 22 25C21.74 25 21.48 24.89 21.29 24.71C21.11 24.52 21 24.26 21 24C21 23.74 21.11 23.48 21.29 23.29C21.38 23.2 21.49 23.13 21.62 23.08C21.99 22.92 22.43 23.01 22.71 23.29C22.89 23.48 23 23.74 23 24C23 24.26 22.89 24.52 22.71 24.71ZM26.21 28.21C26.02 28.39 25.76 28.5 25.5 28.5C25.24 28.5 24.98 28.39 24.79 28.21C24.61 28.02 24.5 27.76 24.5 27.5C24.5 27.24 24.61 26.98 24.79 26.79C25.16 26.42 25.84 26.42 26.21 26.79C26.39 26.98 26.5 27.24 26.5 27.5C26.5 27.76 26.39 28.02 26.21 28.21ZM26.21 24.71C26.16 24.75 26.11 24.79 26.06 24.83C26 24.87 25.94 24.9 25.88 24.92C25.82 24.95 25.76 24.97 25.7 24.98C25.63 24.99 25.56 25 25.5 25C25.24 25 24.98 24.89 24.79 24.71C24.61 24.52 24.5 24.26 24.5 24C24.5 23.74 24.61 23.48 24.79 23.29C24.89 23.2 24.99 23.13 25.12 23.08C25.3 23 25.5 22.98 25.7 23.02C25.76 23.03 25.82 23.05 25.88 23.08C25.94 23.1 26 23.13 26.06 23.17C26.11 23.21 26.16 23.25 26.21 23.29C26.39 23.48 26.5 23.74 26.5 24C26.5 24.26 26.39 24.52 26.21 24.71Z" fill="#4072DF"/>
</g>
<defs>
<filter id="filter0_di_563_30470" x="0" y="8" width="44" height="44" filterUnits="userSpaceOnUse" color-interpolation-filters="sRGB">
<feFlood flood-opacity="0" result="BackgroundImageFix"/>
<feColorMatrix in="SourceAlpha" type="matrix" values="0 0 0 0 0 0 0 0 0 0 0 0 0 0 0 0 0 0 127 0" result="hardAlpha"/>
<feOffset dy="8"/>
<feGaussianBlur stdDeviation="5"/>
<feComposite in2="hardAlpha" operator="out"/>
<feColorMatrix type="matrix" values="0 0 0 0 0.176471 0 0 0 0 0.419608 0 0 0 0 0.941176 0 0 0 0.3 0"/>
<feBlend mode="normal" in2="BackgroundImageFix" result="effect1_dropShadow_563_30470"/>
<feBlend mode="normal" in="SourceGraphic" in2="effect1_dropShadow_563_30470" result="shape"/>
<feColorMatrix in="SourceAlpha" type="matrix" values="0 0 0 0 0 0 0 0 0 0 0 0 0 0 0 0 0 0 127 0" result="hardAlpha"/>
<feOffset dy="-2"/>
<feGaussianBlur stdDeviation="2"/>
<feComposite in2="hardAlpha" operator="arithmetic" k2="-1" k3="1"/>
<feColorMatrix type="matrix" values="0 0 0 0 1 0 0 0 0 1 0 0 0 0 1 0 0 0 0.4 0"/>
<feBlend mode="normal" in2="shape" result="effect2_innerShadow_563_30470"/>
</filter>
</defs>
</svg>
