<svg width="44" height="51" viewBox="0 0 44 51" fill="none" xmlns="http://www.w3.org/2000/svg">
<rect width="44" height="44" rx="10" fill="white" fill-opacity="0.8"/>
<rect x="0.5" y="0.5" width="43" height="43" rx="9.5" stroke="#F1C659" stroke-opacity="0.06"/>
<g filter="url(#filter0_di_563_30481)">
<path d="M26.7502 13.56V12C26.7502 11.59 26.4102 11.25 26.0002 11.25C25.5902 11.25 25.2502 11.59 25.2502 12V13.5H18.7502V12C18.7502 11.59 18.4102 11.25 18.0002 11.25C17.5902 11.25 17.2502 11.59 17.2502 12V13.56C14.5502 13.81 13.2402 15.42 13.0402 17.81C13.0202 18.1 13.2602 18.34 13.5402 18.34H30.4602C30.7502 18.34 30.9902 18.09 30.9602 17.81C30.7602 15.42 29.4502 13.81 26.7502 13.56Z" fill="#EAC980"/>
<path d="M29 25C26.79 25 25 26.79 25 29C25 29.75 25.21 30.46 25.58 31.06C26.27 32.22 27.54 33 29 33C30.46 33 31.73 32.22 32.42 31.06C32.79 30.46 33 29.75 33 29C33 26.79 31.21 25 29 25ZM31.07 28.57L28.94 30.54C28.8 30.67 28.61 30.74 28.43 30.74C28.24 30.74 28.05 30.67 27.9 30.52L26.91 29.53C26.62 29.24 26.62 28.76 26.91 28.47C27.2 28.18 27.68 28.18 27.97 28.47L28.45 28.95L30.05 27.47C30.35 27.19 30.83 27.21 31.11 27.51C31.39 27.81 31.37 28.28 31.07 28.57Z" fill="#EAC980"/>
<path d="M30 19.84H14C13.45 19.84 13 20.29 13 20.84V27C13 30 14.5 32 18 32H22.93C23.62 32 24.1 31.33 23.88 30.68C23.68 30.1 23.51 29.46 23.51 29C23.51 25.97 25.98 23.5 29.01 23.5C29.3 23.5 29.59 23.52 29.87 23.57C30.47 23.66 31.01 23.19 31.01 22.59V20.85C31 20.29 30.55 19.84 30 19.84ZM19.21 28.21C19.02 28.39 18.76 28.5 18.5 28.5C18.24 28.5 17.98 28.39 17.79 28.21C17.61 28.02 17.5 27.76 17.5 27.5C17.5 27.24 17.61 26.98 17.79 26.79C17.89 26.7 17.99 26.63 18.12 26.58C18.49 26.42 18.93 26.51 19.21 26.79C19.39 26.98 19.5 27.24 19.5 27.5C19.5 27.76 19.39 28.02 19.21 28.21ZM19.21 24.71C19.16 24.75 19.11 24.79 19.06 24.83C19 24.87 18.94 24.9 18.88 24.92C18.82 24.95 18.76 24.97 18.7 24.98C18.63 24.99 18.56 25 18.5 25C18.24 25 17.98 24.89 17.79 24.71C17.61 24.52 17.5 24.26 17.5 24C17.5 23.74 17.61 23.48 17.79 23.29C18.02 23.06 18.37 22.95 18.7 23.02C18.76 23.03 18.82 23.05 18.88 23.08C18.94 23.1 19 23.13 19.06 23.17C19.11 23.21 19.16 23.25 19.21 23.29C19.39 23.48 19.5 23.74 19.5 24C19.5 24.26 19.39 24.52 19.21 24.71ZM22.71 24.71C22.52 24.89 22.26 25 22 25C21.74 25 21.48 24.89 21.29 24.71C21.11 24.52 21 24.26 21 24C21 23.74 21.11 23.48 21.29 23.29C21.67 22.92 22.34 22.92 22.71 23.29C22.89 23.48 23 23.74 23 24C23 24.26 22.89 24.52 22.71 24.71Z" fill="#EAC980"/>
</g>
<defs>
<filter id="filter0_di_563_30481" x="0" y="8" width="44" height="44" filterUnits="userSpaceOnUse" color-interpolation-filters="sRGB">
<feFlood flood-opacity="0" result="BackgroundImageFix"/>
<feColorMatrix in="SourceAlpha" type="matrix" values="0 0 0 0 0 0 0 0 0 0 0 0 0 0 0 0 0 0 127 0" result="hardAlpha"/>
<feOffset dy="8"/>
<feGaussianBlur stdDeviation="5"/>
<feComposite in2="hardAlpha" operator="out"/>
<feColorMatrix type="matrix" values="0 0 0 0 0.92549 0 0 0 0 0.741176 0 0 0 0 0.337255 0 0 0 0.3 0"/>
<feBlend mode="normal" in2="BackgroundImageFix" result="effect1_dropShadow_563_30481"/>
<feBlend mode="normal" in="SourceGraphic" in2="effect1_dropShadow_563_30481" result="shape"/>
<feColorMatrix in="SourceAlpha" type="matrix" values="0 0 0 0 0 0 0 0 0 0 0 0 0 0 0 0 0 0 127 0" result="hardAlpha"/>
<feOffset dy="-2"/>
<feGaussianBlur stdDeviation="2"/>
<feComposite in2="hardAlpha" operator="arithmetic" k2="-1" k3="1"/>
<feColorMatrix type="matrix" values="0 0 0 0 1 0 0 0 0 1 0 0 0 0 1 0 0 0 0.4 0"/>
<feBlend mode="normal" in2="shape" result="effect2_innerShadow_563_30481"/>
</filter>
</defs>
</svg>
