<svg width="36" height="36" viewBox="0 0 36 36" fill="none" xmlns="http://www.w3.org/2000/svg">
<path d="M22.6179 11.9893L13.3801 6.65625L2.71289 24.7066L11.9507 30.0397L22.6179 11.9893Z" fill="#FFC107"/>
<path d="M24.0482 30.0399C25.5211 32.5907 28.846 33.4399 31.3339 31.9918C33.8801 30.51 34.7589 27.2577 33.286 24.7068L22.6188 6.65643C21.1459 4.10558 17.8309 3.25639 15.3331 4.70453C12.7845 6.1822 11.9081 9.43865 13.381 11.9895L24.0482 30.0399Z" fill="#1E88E5"/>
<path d="M7.3336 32.7091C10.2793 32.7091 12.6672 30.3214 12.6672 27.376C12.6672 24.4307 10.2793 22.043 7.3336 22.043C4.38793 22.043 2 24.4307 2 27.376C2 30.3214 4.38793 32.7091 7.3336 32.7091Z" fill="#43A047"/>
</svg>
