<svg width="20" height="20" viewBox="0 0 20 20" fill="none" xmlns="http://www.w3.org/2000/svg">
<path d="M7.17916 5.38513L17.1792 5.38568M7.17916 10.0005L17.1792 10.0012M7.17916 14.6159L17.1792 14.6165M3.71762 5.38462H3.72532M3.71762 10H3.72532M3.71762 14.6154H3.72532M4.10224 5.38462C4.10224 5.59703 3.93004 5.76923 3.71762 5.76923C3.50521 5.76923 3.33301 5.59703 3.33301 5.38462C3.33301 5.1722 3.50521 5 3.71762 5C3.93004 5 4.10224 5.1722 4.10224 5.38462ZM4.10224 10C4.10224 10.2124 3.93004 10.3846 3.71762 10.3846C3.50521 10.3846 3.33301 10.2124 3.33301 10C3.33301 9.78762 3.50521 9.61538 3.71762 9.61538C3.93004 9.61538 4.10224 9.78762 4.10224 10ZM4.10224 14.6154C4.10224 14.8278 3.93004 15 3.71762 15C3.50521 15 3.33301 14.8278 3.33301 14.6154C3.33301 14.403 3.50521 14.2308 3.71762 14.2308C3.93004 14.2308 4.10224 14.403 4.10224 14.6154Z" stroke="#232323" stroke-width="1.6" stroke-linecap="round" stroke-linejoin="round"/>
</svg>
