<svg width="32" height="32" viewBox="0 0 32 32" fill="none" xmlns="http://www.w3.org/2000/svg">
<rect width="32" height="32" rx="8" fill="#F3F3F3"/>
<path d="M14.5105 9.33301H10.432C9.82559 9.33301 9.33398 9.82462 9.33398 10.431V21.5683C9.33398 22.1747 9.82559 22.6663 10.432 22.6663H14.5105C15.1169 22.6663 15.6085 22.1747 15.6085 21.5683V10.431C15.6085 9.82462 15.1169 9.33301 14.5105 9.33301Z" stroke="#232323" stroke-width="1.6" stroke-linecap="round"/>
<path d="M22.3531 9.33301H19.059C18.4525 9.33301 17.9609 9.82462 17.9609 10.431V17.6467C17.9609 18.2532 18.4525 18.7448 19.059 18.7448H22.3531C22.9595 18.7448 23.4511 18.2532 23.4511 17.6467V10.431C23.4511 9.82462 22.9595 9.33301 22.3531 9.33301Z" stroke="#232323" stroke-width="1.6" stroke-linecap="round"/>
</svg>
