<svg width="1506" height="130" viewBox="0 0 1506 130" fill="none" xmlns="http://www.w3.org/2000/svg">
<g filter="url(#filter0_d_100_8950)">
<path d="M32.0859 10C32.0859 10 38.4663 10.0723 40.9746 12.8525C41.1132 13.0061 41.2511 13.1728 41.3896 13.3496C44.8453 33.5346 62.0473 48.875 82.7529 48.875C102.922 48.875 119.767 34.319 123.82 14.9082C124.29 14.1148 124.782 13.4036 125.279 12.8525C127.788 10.0723 134.168 10 134.168 10H1484C1490.63 10 1496 15.3726 1496 22V108C1496 114.627 1490.63 120 1484 120H22C15.3726 120 10 114.627 10 108V22C10 15.3726 15.3726 10 22 10H32.0859Z" fill="white"/>
</g>
<defs>
<filter id="filter0_d_100_8950" x="0" y="0" width="1506" height="130" filterUnits="userSpaceOnUse" color-interpolation-filters="sRGB">
<feFlood flood-opacity="0" result="BackgroundImageFix"/>
<feColorMatrix in="SourceAlpha" type="matrix" values="0 0 0 0 0 0 0 0 0 0 0 0 0 0 0 0 0 0 127 0" result="hardAlpha"/>
<feOffset/>
<feGaussianBlur stdDeviation="5"/>
<feComposite in2="hardAlpha" operator="out"/>
<feColorMatrix type="matrix" values="0 0 0 0 0 0 0 0 0 0 0 0 0 0 0 0 0 0 0.04 0"/>
<feBlend mode="normal" in2="BackgroundImageFix" result="effect1_dropShadow_100_8950"/>
<feBlend mode="normal" in="SourceGraphic" in2="effect1_dropShadow_100_8950" result="shape"/>
</filter>
</defs>
</svg>
