<svg width="24" height="24" viewBox="0 0 24 24" fill="none" xmlns="http://www.w3.org/2000/svg">
<path d="M20.9597 17.8385L19.3297 18.3885C18.8797 18.5385 18.5197 18.8885 18.3697 19.3485L17.8197 20.9785C17.3497 22.3885 15.3697 22.3585 14.9297 20.9485L13.0797 14.9985C12.7197 13.8185 13.8097 12.7185 14.9797 13.0885L20.9397 14.9385C22.3397 15.3785 22.3597 17.3685 20.9597 17.8385Z" fill="#6198EA"/>
<path d="M21.0004 11.4994C21.0004 11.9294 20.9704 12.3594 20.9204 12.7794C20.8804 13.0794 20.5704 13.2594 20.2804 13.1694L15.4304 11.6594C14.3504 11.3294 13.2004 11.6094 12.4004 12.3994C11.6004 13.1994 11.3104 14.3694 11.6504 15.4494L13.1504 20.2794C13.2404 20.5694 13.0504 20.8794 12.7504 20.9194C12.3304 20.9694 11.9204 20.9994 11.5004 20.9994C6.16039 20.9994 1.86039 16.6094 2.00039 11.2294C2.14039 6.26942 6.27039 2.13942 11.2304 1.99942C16.6104 1.85942 21.0004 6.15942 21.0004 11.4994Z" fill="#6198EA"/>
</svg>
