<svg width="40" height="48" viewBox="0 0 40 48" fill="none" xmlns="http://www.w3.org/2000/svg">
<rect width="40" height="40" rx="10" fill="white"/>
<rect x="0.5" y="0.5" width="39" height="39" rx="9.5" stroke="#47B35F" stroke-opacity="0.06"/>
<g filter="url(#filter0_di_4032_15188)">
<path d="M30 20C30 14.49 25.51 10 20 10C14.49 10 10 14.49 10 20C10 22.9 11.25 25.51 13.23 27.34C13.23 27.35 13.23 27.35 13.22 27.36C13.32 27.46 13.44 27.54 13.54 27.63C13.6 27.68 13.65 27.73 13.71 27.77C13.89 27.92 14.09 28.06 14.28 28.2C14.35 28.25 14.41 28.29 14.48 28.34C14.67 28.47 14.87 28.59 15.08 28.7C15.15 28.74 15.23 28.79 15.3 28.83C15.5 28.94 15.71 29.04 15.93 29.13C16.01 29.17 16.09 29.21 16.17 29.24C16.39 29.33 16.61 29.41 16.83 29.48C16.91 29.51 16.99 29.54 17.07 29.56C17.31 29.63 17.55 29.69 17.79 29.75C17.86 29.77 17.93 29.79 18.01 29.8C18.29 29.86 18.57 29.9 18.86 29.93C18.9 29.93 18.94 29.94 18.98 29.95C19.32 29.98 19.66 30 20 30C20.34 30 20.68 29.98 21.01 29.95C21.05 29.95 21.09 29.94 21.13 29.93C21.42 29.9 21.7 29.86 21.98 29.8C22.05 29.79 22.12 29.76 22.2 29.75C22.44 29.69 22.69 29.64 22.92 29.56C23 29.53 23.08 29.5 23.16 29.48C23.38 29.4 23.61 29.33 23.82 29.24C23.9 29.21 23.98 29.17 24.06 29.13C24.27 29.04 24.48 28.94 24.69 28.83C24.77 28.79 24.84 28.74 24.91 28.7C25.11 28.58 25.31 28.47 25.51 28.34C25.58 28.3 25.64 28.25 25.71 28.2C25.91 28.06 26.1 27.92 26.28 27.77C26.34 27.72 26.39 27.67 26.45 27.63C26.56 27.54 26.67 27.45 26.77 27.36C26.77 27.35 26.77 27.35 26.76 27.34C28.75 25.51 30 22.9 30 20ZM24.94 24.97C22.23 23.15 17.79 23.15 15.06 24.97C14.62 25.26 14.26 25.6 13.96 25.97C12.44 24.43 11.5 22.32 11.5 20C11.5 15.31 15.31 11.5 20 11.5C24.69 11.5 28.5 15.31 28.5 20C28.5 22.32 27.56 24.43 26.04 25.97C25.75 25.6 25.38 25.26 24.94 24.97Z" fill="#47B35F"/>
<path d="M20 14.9297C17.93 14.9297 16.25 16.6097 16.25 18.6797C16.25 20.7097 17.84 22.3597 19.95 22.4197C19.98 22.4197 20.02 22.4197 20.04 22.4197C20.06 22.4197 20.09 22.4197 20.11 22.4197C20.12 22.4197 20.13 22.4197 20.13 22.4197C22.15 22.3497 23.74 20.7097 23.75 18.6797C23.75 16.6097 22.07 14.9297 20 14.9297Z" fill="#47B35F"/>
</g>
<defs>
<filter id="filter0_di_4032_15188" x="-2" y="6" width="44" height="44" filterUnits="userSpaceOnUse" color-interpolation-filters="sRGB">
<feFlood flood-opacity="0" result="BackgroundImageFix"/>
<feColorMatrix in="SourceAlpha" type="matrix" values="0 0 0 0 0 0 0 0 0 0 0 0 0 0 0 0 0 0 127 0" result="hardAlpha"/>
<feOffset dy="8"/>
<feGaussianBlur stdDeviation="5"/>
<feComposite in2="hardAlpha" operator="out"/>
<feColorMatrix type="matrix" values="0 0 0 0 0.278431 0 0 0 0 0.701961 0 0 0 0 0.372549 0 0 0 0.3 0"/>
<feBlend mode="normal" in2="BackgroundImageFix" result="effect1_dropShadow_4032_15188"/>
<feBlend mode="normal" in="SourceGraphic" in2="effect1_dropShadow_4032_15188" result="shape"/>
<feColorMatrix in="SourceAlpha" type="matrix" values="0 0 0 0 0 0 0 0 0 0 0 0 0 0 0 0 0 0 127 0" result="hardAlpha"/>
<feOffset dy="-2"/>
<feGaussianBlur stdDeviation="2"/>
<feComposite in2="hardAlpha" operator="arithmetic" k2="-1" k3="1"/>
<feColorMatrix type="matrix" values="0 0 0 0 1 0 0 0 0 1 0 0 0 0 1 0 0 0 0.4 0"/>
<feBlend mode="normal" in2="shape" result="effect2_innerShadow_4032_15188"/>
</filter>
</defs>
</svg>
