<svg width="110" height="42" viewBox="0 0 110 42" fill="none" xmlns="http://www.w3.org/2000/svg">
<rect width="110" height="42" rx="10" fill="#F3F3F3"/>
<path d="M25.9414 26.2591H32.6081C34.9081 26.2591 36.7747 24.3924 36.7747 22.0924C36.7747 19.7924 34.9081 17.9258 32.6081 17.9258H23.4414" stroke="#505050" stroke-width="1.5" stroke-miterlimit="10" stroke-linecap="round" stroke-linejoin="round"/>
<path d="M25.3579 20.0089L23.2246 17.8755L25.3579 15.7422" stroke="#505050" stroke-width="1.5" stroke-linecap="round" stroke-linejoin="round"/>
<path d="M49.162 26V16.2H53.404C54.2813 16.2 55.0373 16.3447 55.672 16.634C56.3067 16.914 56.7967 17.32 57.142 17.852C57.4873 18.384 57.66 19.0187 57.66 19.756C57.66 20.484 57.4873 21.114 57.142 21.646C56.7967 22.1687 56.3067 22.57 55.672 22.85C55.0373 23.13 54.2813 23.27 53.404 23.27H50.422L51.43 22.276V26H49.162ZM55.392 26L52.942 22.444H55.364L57.842 26H55.392ZM51.43 22.528L50.422 21.464H53.278C53.978 21.464 54.5007 21.3147 54.846 21.016C55.1913 20.708 55.364 20.288 55.364 19.756C55.364 19.2147 55.1913 18.7947 54.846 18.496C54.5007 18.1973 53.978 18.048 53.278 18.048H50.422L51.43 16.97V22.528ZM63.0409 26.112C62.1823 26.112 61.4263 25.944 60.7729 25.608C60.1289 25.272 59.6296 24.8147 59.2749 24.236C58.9203 23.648 58.7429 22.9807 58.7429 22.234C58.7429 21.478 58.9156 20.8107 59.2609 20.232C59.6156 19.644 60.0963 19.1867 60.7029 18.86C61.3096 18.524 61.9956 18.356 62.7609 18.356C63.4983 18.356 64.1609 18.5147 64.7489 18.832C65.3463 19.14 65.8176 19.588 66.1629 20.176C66.5083 20.7547 66.6809 21.45 66.6809 22.262C66.6809 22.346 66.6763 22.444 66.6669 22.556C66.6576 22.6587 66.6483 22.7567 66.6389 22.85H60.5209V21.576H65.4909L64.6509 21.954C64.6509 21.562 64.5716 21.2213 64.4129 20.932C64.2543 20.6427 64.0349 20.4187 63.7549 20.26C63.4749 20.092 63.1483 20.008 62.7749 20.008C62.4016 20.008 62.0703 20.092 61.7809 20.26C61.5009 20.4187 61.2816 20.6473 61.1229 20.946C60.9643 21.2353 60.8849 21.5807 60.8849 21.982V22.318C60.8849 22.7287 60.9736 23.0927 61.1509 23.41C61.3376 23.718 61.5943 23.956 61.9209 24.124C62.2569 24.2827 62.6489 24.362 63.0969 24.362C63.4983 24.362 63.8483 24.3013 64.1469 24.18C64.4549 24.0587 64.7349 23.8767 64.9869 23.634L66.1489 24.894C65.8036 25.286 65.3696 25.5893 64.8469 25.804C64.3243 26.0093 63.7223 26.112 63.0409 26.112ZM72.587 26.112C71.9523 26.112 71.397 25.972 70.921 25.692C70.445 25.412 70.0716 24.9873 69.801 24.418C69.5396 23.8393 69.409 23.1113 69.409 22.234C69.409 21.3473 69.535 20.6193 69.787 20.05C70.039 19.4807 70.403 19.056 70.879 18.776C71.355 18.496 71.9243 18.356 72.587 18.356C73.2963 18.356 73.931 18.5193 74.491 18.846C75.0603 19.1633 75.5083 19.6113 75.835 20.19C76.171 20.7687 76.339 21.45 76.339 22.234C76.339 23.0273 76.171 23.7133 75.835 24.292C75.5083 24.8707 75.0603 25.3187 74.491 25.636C73.931 25.9533 73.2963 26.112 72.587 26.112ZM68.135 28.716V18.468H70.221V20.008L70.179 22.248L70.319 24.474V28.716H68.135ZM72.209 24.32C72.573 24.32 72.895 24.236 73.175 24.068C73.4643 23.9 73.693 23.662 73.861 23.354C74.0383 23.0367 74.127 22.6633 74.127 22.234C74.127 21.7953 74.0383 21.422 73.861 21.114C73.693 20.806 73.4643 20.568 73.175 20.4C72.895 20.232 72.573 20.148 72.209 20.148C71.845 20.148 71.5183 20.232 71.229 20.4C70.9396 20.568 70.711 20.806 70.543 21.114C70.375 21.422 70.291 21.7953 70.291 22.234C70.291 22.6633 70.375 23.0367 70.543 23.354C70.711 23.662 70.9396 23.9 71.229 24.068C71.5183 24.236 71.845 24.32 72.209 24.32ZM77.801 26V15.612H79.985V26H77.801ZM82.9639 28.828C82.5719 28.828 82.1846 28.7673 81.8019 28.646C81.4192 28.5247 81.1066 28.3567 80.8639 28.142L81.6619 26.588C81.8299 26.7373 82.0212 26.854 82.2359 26.938C82.4599 27.022 82.6792 27.064 82.8939 27.064C83.2019 27.064 83.4446 26.9893 83.6219 26.84C83.8086 26.7 83.9766 26.462 84.1259 26.126L84.5179 25.202L84.6859 24.964L87.3879 18.468H89.4879L86.0859 26.462C85.8432 27.0687 85.5632 27.5447 85.2459 27.89C84.9379 28.2353 84.5926 28.478 84.2099 28.618C83.8366 28.758 83.4212 28.828 82.9639 28.828ZM84.2519 26.294L80.8919 18.468H83.1459L85.7499 24.768L84.2519 26.294Z" fill="#505050"/>
</svg>
